<svg xmlns="http://www.w3.org/2000/svg" width="448" height="513" viewBox="0 0 448 513" role="img" aria-label="Synthetic NDVI change grid"><rect width="100%" height="100%" rx="18" fill="#f2f7f4"/><text x="20" y="30" font-size="17" font-weight="700" fill="#123c35">Synthetic NDVI change evidence</text><text x="20" y="48" font-size="11" fill="#55706b">Red = threshold-based loss flag · labels show NDVI change</text><rect x="20" y="58" width="62" height="62" rx="10" fill="#2da57b" opacity="0.92"/><text x="51.0" y="87" text-anchor="middle" font-size="12" font-weight="700" fill="white">OK</text><text x="51.0" y="104" text-anchor="middle" font-size="10" fill="white">-0.03</text><rect x="88" y="58" width="62" height="62" rx="10" fill="#2da57b" opacity="0.92"/><text x="119.0" y="87" text-anchor="middle" font-size="12" font-weight="700" fill="white">OK</text><text x="119.0" y="104" text-anchor="middle" font-size="10" fill="white">-0.02</text><rect x="156" y="58" width="62" height="62" rx="10" fill="#2da57b" opacity="0.92"/><text x="187.0" y="87" text-anchor="middle" font-size="12" font-weight="700" fill="white">OK</text><text x="187.0" y="104" text-anchor="middle" font-size="10" fill="white">-0.03</text><rect x="224" y="58" width="62" height="62" rx="10" fill="#2da57b" opacity="0.92"/><text x="255.0" y="87" text-anchor="middle" font-size="12" font-weight="700" fill="white">OK</text><text x="255.0" y="104" text-anchor="middle" font-size="10" fill="white">-0.03</text><rect x="292" y="58" width="62" height="62" rx="10" fill="#2da57b" opacity="0.92"/><text x="323.0" y="87" text-anchor="middle" font-size="12" font-weight="700" fill="white">OK</text><text x="323.0" y="104" text-anchor="middle" font-size="10" fill="white">-0.02</text><rect x="360" y="58" width="62" height="62" rx="10" fill="#2da57b" opacity="0.92"/><text x="391.0" y="87" text-anchor="middle" font-size="12" font-weight="700" fill="white">OK</text><text x="391.0" y="104" text-anchor="middle" font-size="10" fill="white">-0.02</text><rect x="20" y="126" width="62" height="62" rx="10" fill="#2da57b" opacity="0.92"/><text x="51.0" y="155" text-anchor="middle" font-size="12" font-weight="700" fill="white">OK</text><text x="51.0" y="172" text-anchor="middle" font-size="10" fill="white">-0.02</text><rect x="88" y="126" width="62" height="62" rx="10" fill="#2da57b" opacity="0.92"/><text x="119.0" y="155" text-anchor="middle" font-size="12" font-weight="700" fill="white">OK</text><text x="119.0" y="172" text-anchor="middle" font-size="10" fill="white">-0.04</text><rect x="156" y="126" width="62" height="62" rx="10" fill="#f05a47" opacity="0.92"/><text x="187.0" y="155" text-anchor="middle" font-size="12" font-weight="700" fill="white">LOSS</text><text x="187.0" y="172" text-anchor="middle" font-size="10" fill="white">-0.55</text><rect x="224" y="126" width="62" height="62" rx="10" fill="#f05a47" opacity="0.92"/><text x="255.0" y="155" text-anchor="middle" font-size="12" font-weight="700" fill="white">LOSS</text><text x="255.0" y="172" text-anchor="middle" font-size="10" fill="white">-0.60</text><rect x="292" y="126" width="62" height="62" rx="10" fill="#2da57b" opacity="0.92"/><text x="323.0" y="155" text-anchor="middle" font-size="12" font-weight="700" fill="white">OK</text><text x="323.0" y="172" text-anchor="middle" font-size="10" fill="white">-0.03</text><rect x="360" y="126" width="62" height="62" rx="10" fill="#2da57b" opacity="0.92"/><text x="391.0" y="155" text-anchor="middle" font-size="12" font-weight="700" fill="white">OK</text><text x="391.0" y="172" text-anchor="middle" font-size="10" fill="white">-0.03</text><rect x="20" y="194" width="62" height="62" rx="10" fill="#2da57b" opacity="0.92"/><text x="51.0" y="223" text-anchor="middle" font-size="12" font-weight="700" fill="white">OK</text><text x="51.0" y="240" text-anchor="middle" font-size="10" fill="white">-0.04</text><rect x="88" y="194" width="62" height="62" rx="10" fill="#f05a47" opacity="0.92"/><text x="119.0" y="223" text-anchor="middle" font-size="12" font-weight="700" fill="white">LOSS</text><text x="119.0" y="240" text-anchor="middle" font-size="10" fill="white">-0.53</text><rect x="156" y="194" width="62" height="62" rx="10" fill="#f05a47" opacity="0.92"/><text x="187.0" y="223" text-anchor="middle" font-size="12" font-weight="700" fill="white">LOSS</text><text x="187.0" y="240" text-anchor="middle" font-size="10" fill="white">-0.74</text><rect x="224" y="194" width="62" height="62" rx="10" fill="#f05a47" opacity="0.92"/><text x="255.0" y="223" text-anchor="middle" font-size="12" font-weight="700" fill="white">LOSS</text><text x="255.0" y="240" text-anchor="middle" font-size="10" fill="white">-0.78</text><rect x="292" y="194" width="62" height="62" rx="10" fill="#f05a47" opacity="0.92"/><text x="323.0" y="223" text-anchor="middle" font-size="12" font-weight="700" fill="white">LOSS</text><text x="323.0" y="240" text-anchor="middle" font-size="10" fill="white">-0.55</text><rect x="360" y="194" width="62" height="62" rx="10" fill="#2da57b" opacity="0.92"/><text x="391.0" y="223" text-anchor="middle" font-size="12" font-weight="700" fill="white">OK</text><text x="391.0" y="240" text-anchor="middle" font-size="10" fill="white">-0.03</text><rect x="20" y="262" width="62" height="62" rx="10" fill="#2da57b" opacity="0.92"/><text x="51.0" y="291" text-anchor="middle" font-size="12" font-weight="700" fill="white">OK</text><text x="51.0" y="308" text-anchor="middle" font-size="10" fill="white">-0.03</text><rect x="88" y="262" width="62" height="62" rx="10" fill="#f05a47" opacity="0.92"/><text x="119.0" y="291" text-anchor="middle" font-size="12" font-weight="700" fill="white">LOSS</text><text x="119.0" y="308" text-anchor="middle" font-size="10" fill="white">-0.60</text><rect x="156" y="262" width="62" height="62" rx="10" fill="#f05a47" opacity="0.92"/><text x="187.0" y="291" text-anchor="middle" font-size="12" font-weight="700" fill="white">LOSS</text><text x="187.0" y="308" text-anchor="middle" font-size="10" fill="white">-0.85</text><rect x="224" y="262" width="62" height="62" rx="10" fill="#f05a47" opacity="0.92"/><text x="255.0" y="291" text-anchor="middle" font-size="12" font-weight="700" fill="white">LOSS</text><text x="255.0" y="308" text-anchor="middle" font-size="10" fill="white">-0.87</text><rect x="292" y="262" width="62" height="62" rx="10" fill="#f05a47" opacity="0.92"/><text x="323.0" y="291" text-anchor="middle" font-size="12" font-weight="700" fill="white">LOSS</text><text x="323.0" y="308" text-anchor="middle" font-size="10" fill="white">-0.61</text><rect x="360" y="262" width="62" height="62" rx="10" fill="#2da57b" opacity="0.92"/><text x="391.0" y="291" text-anchor="middle" font-size="12" font-weight="700" fill="white">OK</text><text x="391.0" y="308" text-anchor="middle" font-size="10" fill="white">-0.03</text><rect x="20" y="330" width="62" height="62" rx="10" fill="#2da57b" opacity="0.92"/><text x="51.0" y="359" text-anchor="middle" font-size="12" font-weight="700" fill="white">OK</text><text x="51.0" y="376" text-anchor="middle" font-size="10" fill="white">-0.03</text><rect x="88" y="330" width="62" height="62" rx="10" fill="#2da57b" opacity="0.92"/><text x="119.0" y="359" text-anchor="middle" font-size="12" font-weight="700" fill="white">OK</text><text x="119.0" y="376" text-anchor="middle" font-size="10" fill="white">-0.03</text><rect x="156" y="330" width="62" height="62" rx="10" fill="#f05a47" opacity="0.92"/><text x="187.0" y="359" text-anchor="middle" font-size="12" font-weight="700" fill="white">LOSS</text><text x="187.0" y="376" text-anchor="middle" font-size="10" fill="white">-0.55</text><rect x="224" y="330" width="62" height="62" rx="10" fill="#f05a47" opacity="0.92"/><text x="255.0" y="359" text-anchor="middle" font-size="12" font-weight="700" fill="white">LOSS</text><text x="255.0" y="376" text-anchor="middle" font-size="10" fill="white">-0.60</text><rect x="292" y="330" width="62" height="62" rx="10" fill="#2da57b" opacity="0.92"/><text x="323.0" y="359" text-anchor="middle" font-size="12" font-weight="700" fill="white">OK</text><text x="323.0" y="376" text-anchor="middle" font-size="10" fill="white">-0.03</text><rect x="360" y="330" width="62" height="62" rx="10" fill="#2da57b" opacity="0.92"/><text x="391.0" y="359" text-anchor="middle" font-size="12" font-weight="700" fill="white">OK</text><text x="391.0" y="376" text-anchor="middle" font-size="10" fill="white">-0.03</text><rect x="20" y="398" width="62" height="62" rx="10" fill="#2da57b" opacity="0.92"/><text x="51.0" y="427" text-anchor="middle" font-size="12" font-weight="700" fill="white">OK</text><text x="51.0" y="444" text-anchor="middle" font-size="10" fill="white">-0.03</text><rect x="88" y="398" width="62" height="62" rx="10" fill="#2da57b" opacity="0.92"/><text x="119.0" y="427" text-anchor="middle" font-size="12" font-weight="700" fill="white">OK</text><text x="119.0" y="444" text-anchor="middle" font-size="10" fill="white">-0.03</text><rect x="156" y="398" width="62" height="62" rx="10" fill="#2da57b" opacity="0.92"/><text x="187.0" y="427" text-anchor="middle" font-size="12" font-weight="700" fill="white">OK</text><text x="187.0" y="444" text-anchor="middle" font-size="10" fill="white">-0.03</text><rect x="224" y="398" width="62" height="62" rx="10" fill="#2da57b" opacity="0.92"/><text x="255.0" y="427" text-anchor="middle" font-size="12" font-weight="700" fill="white">OK</text><text x="255.0" y="444" text-anchor="middle" font-size="10" fill="white">-0.03</text><rect x="292" y="398" width="62" height="62" rx="10" fill="#2da57b" opacity="0.92"/><text x="323.0" y="427" text-anchor="middle" font-size="12" font-weight="700" fill="white">OK</text><text x="323.0" y="444" text-anchor="middle" font-size="10" fill="white">-0.03</text><rect x="360" y="398" width="62" height="62" rx="10" fill="#2da57b" opacity="0.92"/><text x="391.0" y="427" text-anchor="middle" font-size="12" font-weight="700" fill="white">OK</text><text x="391.0" y="444" text-anchor="middle" font-size="10" fill="white">-0.03</text><text x="20" y="497" font-size="10" fill="#55706b">Educational reconstructed baseline — not an EUDR compliance determination</text></svg>
